<svg xmlns="http://www.w3.org/2000/svg" viewBox="0 0 240 240" width="100%" height="100%">
  <defs>
    <style>
      .primary { fill: var(--color-primary-500, #8B5E3C); }
      .secondary { fill: var(--color-primary-200, #D8C3B1); }
      .accent { fill: var(--color-primary-700, #543824); }
      .bg { fill: var(--color-bg-subtle, #F7F6F5); }
      .glass { fill: var(--color-info-50, #EFF6FF); stroke: var(--color-info-500, #3B82F6); stroke-width: 4; }
    </style>
  </defs>
  
  <!-- Background blob -->
  <path class="bg" d="M120,20 C175,20 220,65 220,120 C220,175 175,220 120,220 C65,220 20,175 20,120 C20,65 65,20 120,20 Z" opacity="0.5" />
  
  <!-- Otter Body -->
  <path class="primary" d="M80,180 C80,120 100,80 140,80 C180,80 200,120 200,180 C200,200 180,210 140,210 C100,210 80,200 80,180 Z" />
  
  <!-- Belly -->
  <path class="secondary" d="M100,180 C100,140 120,110 140,110 C160,110 180,140 180,180 C180,190 160,200 140,200 C120,200 100,190 100,180 Z" />
  
  <!-- Head -->
  <circle class="primary" cx="140" cy="90" r="35" />
  
  <!-- Snout -->
  <ellipse class="secondary" cx="140" cy="100" rx="20" ry="15" />
  
  <!-- Nose -->
  <circle class="accent" cx="140" cy="95" r="5" />
  
  <!-- Eyes (Looking through glass) -->
  <circle class="accent" cx="125" cy="85" r="4" />
  <circle class="accent" cx="155" cy="85" r="4" />
  
  <!-- Ears -->
  <circle class="primary" cx="105" cy="75" r="10" />
  <circle class="primary" cx="175" cy="75" r="10" />
  
  <!-- Tail -->
  <path class="primary" d="M80,180 C50,180 40,190 40,200 C40,210 60,205 90,200 Z" />
  
  <!-- Magnifying Glass Handle -->
  <rect class="accent" x="60" y="140" width="10" height="40" rx="5" transform="rotate(-45 65 160)" />
  
  <!-- Magnifying Glass Lens -->
  <circle class="glass" cx="100" cy="120" r="30" />
  
  <!-- Arm holding glass -->
  <path class="primary" d="M100,140 C80,140 70,150 70,160 C70,170 90,165 110,160 Z" />
</svg>
