<svg xmlns="http://www.w3.org/2000/svg" viewBox="0 0 240 240" width="100%" height="100%">
  <defs>
    <style>
      .pri { fill: var(--color-primary-500, #8B5E3C); }
      .sec { fill: var(--color-primary-200, #D8C3B1); }
      .acc { fill: var(--color-primary-700, #543824); }
      .bg  { fill: var(--color-bg-subtle, #F7F6F5); }
      .ln  { stroke: var(--color-primary-700, #543824); fill: none; stroke-linecap: round; stroke-linejoin: round; }
    </style>
  </defs>
  <ellipse class="bg" cx="120" cy="130" rx="90" ry="85" opacity="0.4" />
  <ellipse class="pri" cx="120" cy="165" rx="45" ry="38" />
  <ellipse class="sec" cx="120" cy="168" rx="30" ry="25" />
  <circle class="pri" cx="120" cy="105" r="36" />
  <circle class="pri" cx="90" cy="78" r="11" />
  <circle class="sec" cx="90" cy="78" r="6" />
  <circle class="pri" cx="150" cy="78" r="11" />
  <circle class="sec" cx="150" cy="78" r="6" />
  <ellipse class="sec" cx="120" cy="112" rx="22" ry="16" />
  <ellipse class="acc" cx="120" cy="108" rx="5" ry="3.5" />
  <path class="ln" d="M102,98 Q107,93 112,98" stroke-width="2.5" />
  <path class="ln" d="M128,98 Q133,93 138,98" stroke-width="2.5" />
  <path class="ln" d="M110,116 Q120,124 130,116" stroke-width="2" />
  <path class="pri" d="M158,138 C170,125 180,110 175,105 C170,100 160,112 155,128 Z" />
  <circle class="sec" cx="175" cy="103" r="8" />
  <circle class="pri" cx="172" cy="100" r="2" />
  <circle class="pri" cx="178" cy="100" r="2" />
  <circle class="pri" cx="175" cy="106" r="2" />
  <path class="pri" d="M82,148 C68,152 62,165 72,172 L88,164 Z" />
  <circle class="sec" cx="90" cy="160" r="7" />
  <ellipse class="acc" cx="100" cy="198" rx="14" ry="7" />
  <ellipse class="acc" cx="140" cy="198" rx="14" ry="7" />
  <path class="pri" d="M72,180 C55,185 48,198 58,205 C68,210 78,200 82,190 Z" />
  <g class="acc" opacity="0.6">
    <line x1="192" y1="95" x2="200" y2="90" stroke-width="2" stroke="var(--color-primary-500, #8B5E3C)" stroke-linecap="round" />
    <line x1="190" y1="108" x2="198" y2="112" stroke-width="2" stroke="var(--color-primary-500, #8B5E3C)" stroke-linecap="round" />
    <line x1="185" y1="85" x2="188" y2="78" stroke-width="2" stroke="var(--color-primary-500, #8B5E3C)" stroke-linecap="round" />
    <circle cx="196" cy="82" r="2" fill="var(--color-primary-300, #C4A48A)" />
    <circle cx="205" cy="100" r="1.5" fill="var(--color-primary-300, #C4A48A)" />
  </g>
</svg>
